<svg id="0be0059f-4b82-4ff5-9034-e995a28d537b" data-name="configure-device" xmlns="http://www.w3.org/2000/svg" xmlns:xlink="http://www.w3.org/1999/xlink" viewBox="0 0 175.17099 149.17098"><defs><pattern id="a9a6bec3-9c68-4ead-b1cb-750b874a4889" data-name="New Pattern Swatch 16" width="100" height="100" patternTransform="matrix(0.16825, 0.03314, -0.03363, 0.1685, -393.76634, 443.82827)" patternUnits="userSpaceOnUse" viewBox="0 0 100 100"><rect width="100" height="100" style="fill:none"/><rect width="100" height="100" style="fill:#e6e7e7"/></pattern><pattern id="8b6c9a36-4b0b-4fd4-bea1-b39785bbd52f" data-name="New Pattern Swatch 37" width="100" height="100" patternTransform="translate(-469.34917 467.58287) scale(0.23308)" patternUnits="userSpaceOnUse" viewBox="0 0 100 100"><rect width="100" height="100" style="fill:none"/><rect width="100" height="100" style="fill:#ecf4fb"/></pattern><pattern id="0c7af420-5759-47f3-b833-66530644e700" data-name="New Pattern Swatch 45" width="100" height="100" patternTransform="translate(-469.34917 467.58287) scale(0.23308)" patternUnits="userSpaceOnUse" viewBox="0 0 100 100"><rect width="100" height="100" style="fill:none"/><rect width="100" height="100" style="fill:#fff6da"/></pattern></defs><title>iot-device-config-icon</title><path d="M58.3355,70.47383c-.17383-.54395-.68555-1.10937-3.08691-.64014-27.33008-1.186-27.71973.92084-27.86572,1.71869-.2016,1.10358-2.34918,4.05811-4.30573,6.50818-1.43506-2.80066-4.881-8.38416-12.90326-17.57788-8.25293-9.459-8.96094-8.96094-9.7124-8.44092-.47021.32617-.85791.97949.29639,3.14893C8.45952,82.05251,10.58062,81.81032,11.38726,81.7068c1.19043-.14526,4.71545,1.0556,7.42151,2.13159-1.36383,2.68756-3.87622,8.803-6.57825,21.19263-2.67969,12.291-1.89941,12.55371-.99512,12.8584a1.09822,1.09822,0,0,0,.355.0625c.50391,0,1.15381-.4082,1.99316-2.18066C30.07671,94.64235,28.606,93.08571,28.05181,92.49977c-.77386-.81818-1.71387-4.77148-2.30859-8.111,2.5824-.30133,9.05652-1.60443,21.65381-7.24811C58.87944,71.9966,58.62749,71.382,58.3355,70.47383ZM25.92192,82.94118a3.29464,3.29464,0,0,1-3.87109,2.59473,3.28417,3.28417,0,0,1-2.585-3.87109A3.30243,3.30243,0,0,1,23.337,79.07106a3.28579,3.28579,0,0,1,2.585,3.87012Z" style="fill:#e6f4f0"/><path d="M174.11061,67.63769,165.149,38.061a.73906.73906,0,0,0-.145-.26391L144.78761,14.42236c-.00778-.00889-.01981-.0126-.02795-.02109a.7222.7222,0,0,0-.19952-.15093l-.01309-.00982-.01415-.00659-.00248-.00133L116.57119,1.10977c-.02016-.00946-.04351-.00747-.06439-.015a.71184.71184,0,0,0-.19386-.04533c-.012-.00088-.023-.008-.03538-.00827L85.37888.42452a.6855.6855,0,0,0-.104.02.69433.69433,0,0,0-.15141.02136c-.00743.00261-.012.00871-.0191.0115-.00708.00261-.0145.00128-.02123.00407l-28.47821,12.004a.7192.7192,0,0,0-.24693.17228L35.22469,35.2065a.72728.72728,0,0,0-.15566.2579L24.93433,64.66v.00128a.72671.72671,0,0,0-.03644.28916l-.00106.00849,2.61646,30.79361a.73453.73453,0,0,0,.02547.085.7204.7204,0,0,0,.05094.168c.00531.01114.0046.02441.01061.03524l14.91551,27.067c.00425.00774.01274.0122.017.01977.00566.00933.00955.01977.01557.02888.00389.006.00566.01318.00991.019a.72552.72552,0,0,0,.14434.14876l.00389.00411.00672.00769.00318.0023.00142.00111L67.34811,141.9966c.00778.00593.0184.00677.02653.01238a.71692.71692,0,0,0,.242.11356l.00389.00177,30.08749,7.0258v0l.00743.00172a.72343.72343,0,0,0,.16486.0191l.00035,0,.00035,0,.00142-.00018a.70436.70436,0,0,0,.13443-.01291l30.351-5.82088a.72353.72353,0,0,0,.27735-.11674l25.36011-17.66286a.71935.71935,0,0,0,.20589-.22L170.19442,98.887a.71739.71739,0,0,0,.09905-.28443L174.13608,67.938A.71894.71894,0,0,0,174.11061,67.63769Zm-9.32706-25.78543-9.707-13.318,8.73025,10.0946ZM97.73842,147.66942l-28.117-6.56573,4.58694-2.937,32.30738,3.6158ZM49.20059,126.43228l23.34223,11.0801-4.72278,3.024ZM26.38265,65.329l14.231-7.00666L33.39854,89.35985,28.82293,94.0511Zm110.458,3.40584-33.38884-6.092L94.3359,32.61237l27.99143-14.34554,24.98936,23.22951Zm-94.6-11.0132H67.969l11.85578,31.811L59.01832,109.87424,34.86385,89.45377Zm78.1672-40.09931L93.96515,31.174l-4.958-21.48446ZM91.03207,8.70624,115.82262,2.62l5.43173,13.72168Zm-10.11879,79.597L69.59665,57.93883l31.93309,5.82645Zm21.71808-23.59654,11.04035,30.69279L82.01456,89.245Zm-32.6615-8.173,23.154-22.93009,8.72459,28.74658Zm-1.07227-.97715c-1.19715-5.07253-5.55944-21.74391-6.7014-26.09829l29.686,3.33549ZM80.37839,91.01777,91.65046,121.263,60.40084,110.54887ZM57.89087,110.81831l-14.33179,10.729-8.5608-30.0825Zm1.29019.84422,32.197,11.03858L73.93595,136.56982,44.54573,122.61868Zm33.57988,11.7902,14.09088,16.90911-30.9942-3.4685Zm.34846-2.42529L81.79876,90.67891l31.64053,6.15125L94.70346,119.13ZM103.99479,64.215l31.94937,5.82941-20.903,24.87934ZM117.60949,3.19783,141.61928,14.467l-18.70152,2.1406ZM88.49875,7.8362l-2.10208-5.942,26.5003-.239ZM92.53346,31.409,63.134,28.10569,87.57719,9.93859ZM60.92724,30.33186c1.34608,5.13877,5.68043,21.72657,6.65081,25.94073H43.0447ZM42.20875,54.93217,40.20218,32.40891,59.68835,29.5763ZM33.464,91.36791l7.24479,25.45824L29.12894,95.81242Zm75.32433,49.05442-14.97918-17.9755,9.14133-10.88027,12.12641-14.43288,28.66641,4.54449-3.24475,26.76456Zm7.376-44.58334,20.75619-24.70454,6.67911,29.0537Zm28.97136,4.56244-7.07887-30.79255,10.163-26.42424,13.3745,29.83526,4.27279,29.40968Zm3.69438-59.39772-.00283-.0046a.74477.74477,0,0,0-.15849-.22106l-.00672-.00929-24.56767-22.8374,19.8081-2.26729,22.05027,30.25235-3.982,24.40034ZM57.30963,13.76081,84.93809,2.115l2.2351,6.31854L60.94175,27.92974l-19.5785,2.84605ZM36.38716,36.08525l2.45443-2.61885,2.05786,23.10038L26.88181,63.46851Zm116.66372,88.37089-25.10752,17.487-26.70159,5.121,7.65409-5.13355,32.5253-12.28724a.72612.72612,0,0,0,.46343-.59079l3.296-27.19085,20.32212,1.98808Zm15.824-26.18686-1.732,2.86622-4.11289-28.31335,3.89922-23.88884,5.75012,18.97714Z" style="fill:#d2eef7"/><path d="M108.75347,34.34938l-2.7998-3.50781a1.00107,1.00107,0,0,0-1.40576-.15771l-5.18774,4.14038a4.86535,4.86535,0,0,0-1.40747-.40015H97.9522A4.92086,4.92086,0,0,0,93.26354,36.677L86.6914,35.9391,85.89287,34.195l3.72437-5.44086a4.84027,4.84027,0,0,0,5.40009-3.42181l6.52179-1.22119a.99987.99987,0,0,0,.79883-1.167l-.82617-4.41162a1.00183,1.00183,0,0,0-1.167-.79883l-8.25311,1.54541a4.87389,4.87389,0,0,0-6.6488,4.0871l-2.751,4.01849a.99782.99782,0,0,0-1.1-.18127l-4.43213,2.0293a.99925.99925,0,0,0-.49316,1.32568l1.34253,2.93243a4.95293,4.95293,0,0,0-1.16821.40936C70.8438,36.991,65.57964,37.56081,61.1978,35.594c-6.3158-2.83344-10.079-10.24127-11.85706-14.75043l-.00061-.00494-.00549-.01031c-.62134-1.57733-1.001-2.80072-1.15875-3.34222A10.23781,10.23781,0,0,0,50.28472,5.97047V5.97A10.22963,10.22963,0,1,0,38.53045,20.13435c.86316,3.05127,5.8783,18.86017,18.536,24.5661a23.6386,23.6386,0,0,0,2.567.978c.00781.00275.01294.00916.02087.01172.01263.00409.02539.00244.03809.006a23.16811,23.16811,0,0,0,6.63318,1.06213c.00714.00037.01294.00446.02014.00464l.02832.00049c.0061,0,.01123-.0033.01733-.00342.10144.00128.20178.00781.30347.00781a29.534,29.534,0,0,0,10.66425-2.15143c.01025-.0036.02081-.00189.03107-.0058.00885-.00342.01434-.011.023-.01459.713-.27728,1.42877-.57135,2.15082-.90192q.92358-.42334,1.85889-.90527a4.94977,4.94977,0,0,0,.64954-.42267l1.30164,2.84308a1.00017,1.00017,0,0,0,1.32568.49268l4.43262-2.0293a1.00226,1.00226,0,0,0,.521-.56055.992.992,0,0,0,.04913-.30634l4.8913.54919a4.86941,4.86941,0,0,0,2.25684.87482,4.90809,4.90809,0,0,0,5.17761-3.233l6.5675-5.24158a1.0012,1.0012,0,0,0,.15771-1.40576Z" style="fill:#d2eef7"/><path d="M67.1641,43.43448a21.65083,21.65083,0,0,1-9.56357-2.149C46.7195,36.01,42.53683,22.39916,42.21965,20.11412a.46229.46229,0,0,1,.42821-.50577.48929.48929,0,0,1,.55277.39181c.307,2.21259,4.35116,15.38965,14.86287,20.48581,6.44587,3.12431,14.12666,2.65741,22.83187-1.38878a.51777.51777,0,0,1,.66477.19833.435.435,0,0,1-.21676.60825A33.872,33.872,0,0,1,67.1641,43.43448Z" style="fill:#fff"/><path d="M42.857,14.32008a4.50075,4.50075,0,1,0-1.8667.4082A4.50533,4.50533,0,0,0,42.857,14.32008Zm-5.05567-2.63428A3.50017,3.50017,0,1,1,42.441,13.4109,3.50459,3.50459,0,0,1,37.80131,11.68581Z" style="fill:#5ca3d9"/><path d="M89.0811,25.69264a2.20689,2.20689,0,0,0,3.06494-.57373v-.00049a2.20495,2.20495,0,1,0-3.06494.57422Zm.251-2.50049a1.20517,1.20517,0,1,1,.31348,1.67529A1.20434,1.20434,0,0,1,89.33208,23.19215Z" style="fill:#5ca3d9"/><path d="M97.64751,37.136a2.20491,2.20491,0,0,0-.4917,4.38232,2.26392,2.26392,0,0,0,.25.01367,2.20488,2.20488,0,0,0,.2417-4.396Zm-.38037,3.38818a1.20465,1.20465,0,0,1,.13135-2.40186,1.18111,1.18111,0,0,1,.13721.00781h.00049a1.20456,1.20456,0,0,1-.269,2.394Z" style="fill:#5ca3d9"/><path d="M108.75347,34.34938l-2.7998-3.50781a1.00107,1.00107,0,0,0-1.40576-.15771l-5.18774,4.14038a4.86535,4.86535,0,0,0-1.40747-.40015H97.9522A4.92086,4.92086,0,0,0,93.26354,36.677L86.6914,35.9391,85.89287,34.195l3.72437-5.44086a4.84027,4.84027,0,0,0,5.40009-3.42181l6.52179-1.22119a.99987.99987,0,0,0,.79883-1.167l-.82617-4.41162a1.00183,1.00183,0,0,0-1.167-.79883l-8.25311,1.54541a4.87389,4.87389,0,0,0-6.6488,4.0871l-2.751,4.01849a.99782.99782,0,0,0-1.1-.18127l-4.43213,2.0293a.99925.99925,0,0,0-.49316,1.32568l1.34253,2.93243a4.95293,4.95293,0,0,0-1.16821.40936C70.8438,36.991,65.57964,37.56081,61.1978,35.594c-6.3158-2.83344-10.079-10.24127-11.85706-14.75043l-.00061-.00494-.00549-.01031c-.62134-1.57733-1.001-2.80072-1.15875-3.34222A10.23781,10.23781,0,0,0,50.28472,5.97047V5.97A10.22963,10.22963,0,1,0,38.53045,20.13435c.86316,3.05127,5.8783,18.86017,18.536,24.5661a23.6386,23.6386,0,0,0,2.567.978c.00781.00275.01294.00916.02087.01172.01263.00409.02539.00244.03809.006a23.16811,23.16811,0,0,0,6.63318,1.06213c.00714.00037.01294.00446.02014.00464l.02832.00049c.0061,0,.01123-.0033.01733-.00342.10144.00128.20178.00781.30347.00781a29.534,29.534,0,0,0,10.66425-2.15143c.01025-.0036.02081-.00189.03107-.0058.00885-.00342.01434-.011.023-.01459.713-.27728,1.42877-.57135,2.15082-.90192q.92358-.42334,1.85889-.90527a4.94977,4.94977,0,0,0,.64954-.42267l1.30164,2.84308a1.00017,1.00017,0,0,0,1.32568.49268l4.43262-2.0293a1.00226,1.00226,0,0,0,.521-.56055.992.992,0,0,0,.04913-.30634l4.8913.54919a4.86941,4.86941,0,0,0,2.25684.87482,4.90809,4.90809,0,0,0,5.17761-3.233l6.5675-5.24158a1.0012,1.0012,0,0,0,.15771-1.40576ZM99.73,19.88356l.458,2.4458-4.986.93359c-.01251-.09943-.00763-.19849-.02625-.29785a4.89317,4.89317,0,0,0-.92853-2.05493ZM38.278,17.98939A8.22436,8.22436,0,1,1,48.46636,6.803V6.80251A8.23282,8.23282,0,0,1,47.293,15.49617a8.1441,8.1441,0,0,1-1.47583,1.392A8.23226,8.23226,0,0,1,38.278,17.98939Zm2.42786,2.447c.09839.00287.19507.02087.2937.02087a9.94633,9.94633,0,0,0,5.49176-1.62195c.15106.48047.35718,1.09589.61469,1.80072l-5.60614,2.12207C41.16069,21.83894,40.89226,21.03822,40.70586,20.43642Zm2.74835,6.89667c-.46985-.96753-.883-1.8902-1.23853-2.75l5.60474-2.12146q.346.8335.76886,1.74457l-5.05707,3.05524A.78992.78992,0,0,0,43.45421,27.33308Zm15.868,16.12335c-.48175-.177-.96057-.366-1.43347-.57922C51.31981,39.916,46.94548,33.99214,44.19909,28.7989a.8419.8419,0,0,0,.20795-.08942L49.34,25.7292c2.25647,4.3728,5.81451,9.3457,11.03949,11.69.25793.11566.51971.21918.78235.3197Zm6.0802,1.26337a21.19368,21.19368,0,0,1-4.17218-.66254L63.074,38.32649a15.44033,15.44033,0,0,0,2.49615.37225Zm22.18732-21.881a2.86987,2.86987,0,0,1,2.197-1.8493,2.955,2.955,0,0,1,.5459-.05127,2.90351,2.90351,0,0,1,1.49677.42468c.051.03064.10455.05554.15411.08948a2.96812,2.96812,0,0,1,.76367,4.07813A3.29144,3.29144,0,0,1,91.014,26.71364a2.90966,2.90966,0,0,1-2.19348-.33661c-.0498-.03-.103-.04956-.15155-.08282a2.9618,2.9618,0,0,1-1.07928-3.45538Zm-1.62,3.2984a4.87173,4.87173,0,0,0,1.5694,1.80737c.04828.033.1004.05518.14941.08624l-2.767,4.04242L83.713,29.43361ZM67.40233,44.74306l.16791-6.02716a19.22743,19.22743,0,0,0,2.39221-.279l1.48425,5.84125A24.92916,24.92916,0,0,1,67.40233,44.74306Zm5.99255-.91907-1.47968-5.82312c.54785-.14917,1.10339-.32635,1.66351-.52057L75.735,43.09193Q74.55449,43.51143,73.39489,43.824Zm7.111-2.8125q-.89209.46-1.7749.86426c-.379.17358-.75543.33344-1.13153.49139l-2.1532-5.60364c.75995-.32306,1.5296-.6828,2.31012-1.085a2.97854,2.97854,0,0,1,1.10864-.318l2.34674,5.12579A2.96051,2.96051,0,0,1,80.50591,41.01149Zm6.40039,1.48035-2.12988.97522-1.25391-2.73877L80.2083,33.48946,78.90142,30.635l2.27985-1.04388.33392-.15289,2.26007,4.93646,1.39636,3.04974,2.21857,4.84583Zm1.9646-1.79205-1.20819-2.639,4.87231.54706c-.00854.05774-.02985.11035-.03644.16882a4.87191,4.87191,0,0,0,.34216,2.36884Zm11.40771-.86584a2.92809,2.92809,0,0,1-5.79272-.83417c.00555-.04919.02185-.09412.02972-.14246l.00555-.02649A2.95413,2.95413,0,0,1,97.394,36.39339L97.4,36.39284a3.00967,3.00967,0,0,1,.32959.01855,2.97166,2.97166,0,0,1,2.58789,3.24268C100.31041,39.71638,100.28936,39.773,100.27861,39.83394Zm1.92523-1.5365a4.91511,4.91511,0,0,0-1.15558-2.26135l3.96594-3.16522,1.55225,1.94482Z" style="fill:#5ca3d9"/><path d="M58.06255,72.6465a.85759.85759,0,0,0-1.19482-.21893A74.49194,74.49194,0,0,1,47.46,77.163C31.0103,84.5331,24.76958,84.52345,24.754,84.56544a.93759.93759,0,0,0-.87842.90649.97572.97572,0,0,0,.84131,1.0083h.04492c.63867,0,7.05762-.32562,23.40137-7.64789A71.57182,71.57182,0,0,0,57.8355,73.8373.855.855,0,0,0,58.06255,72.6465Z" style="fill:#e6f4f0"/><path d="M18.30034,81.33961c-.14893.19238-3.69141,4.9082-7.6377,23.00293a91.6882,91.6882,0,0,0-1.7832,9.96973.85957.85957,0,0,0,.78271.93066.65212.65212,0,0,0,.0752.00391.86044.86044,0,0,0,.856-.78613,90.27524,90.27524,0,0,1,1.75-9.751c3.83154-17.56934,7.28516-22.27441,7.31641-22.31543a.86027.86027,0,1,0-1.35937-1.05469Z" style="fill:#e6f4f0"/><path d="M24.418,80.56911a.84994.84994,0,0,0,.23-.03125.86084.86084,0,0,0,.59961-1.05859c-.06494-.2334-1.72314-5.88184-13.87061-19.80322-4.09961-4.69873-6.7373-7.397-8.064-8.24951a.86007.86007,0,1,0-.92969,1.44727c.80566.51758,2.79492,2.314,7.69775,7.93311,11.7915,13.51367,13.49414,19.08154,13.5083,19.13135A.86093.86093,0,0,0,24.418,80.56911Z" style="fill:#e6f4f0"/><path d="M58.3355,70.47383c-.17383-.54395-.68555-1.10937-3.08691-.64014-27.33008-1.186-27.71973.92084-27.86572,1.71869-.2016,1.10358-2.34918,4.05811-4.30573,6.50818-1.43506-2.80066-4.881-8.38416-12.90326-17.57788-8.25293-9.459-8.96094-8.96094-9.7124-8.44092-.47021.32617-.85791.97949.29639,3.14893C8.45952,82.05251,10.58062,81.81032,11.38726,81.7068c1.19043-.14526,4.71545,1.0556,7.42151,2.13159-1.36383,2.68756-3.87622,8.803-6.57825,21.19263-2.67969,12.291-1.89941,12.55371-.99512,12.8584a1.09822,1.09822,0,0,0,.355.0625c.50391,0,1.15381-.4082,1.99316-2.18066C30.07671,94.64235,28.606,93.08571,28.05181,92.49977c-.77386-.81818-1.71387-4.77148-2.30859-8.111,2.5824-.30133,9.05652-1.60443,21.65381-7.24811C58.87944,71.9966,58.62749,71.382,58.3355,70.47383ZM11.54741,79.97926c-.05225,0-.10352.001-.15283.00293C9.92022,78.61732,5.76207,66.3683,2.47533,54.93764L20.39238,79.6501l1.31915-.46045c.06476.13086.10919.22961.16345.34424-.1394.16681-.27527.328-.4057.48126a.79715.79715,0,0,0-.05762.99585l.13989.20154-.40509.504-.56683-.02051a.82248.82248,0,0,0-.71094.332c-.01849.02393-.08966.1181-.2074.29889C17.52752,81.46944,13.535,79.97926,11.54741,79.97926Zm.78986,34.59167,9.194-29.22931-1.00781-.835a.876.876,0,0,0,.15045.03119.8599.8599,0,0,0,.6709-.32129l.60254-.74982,1.1991.04352.53088.76489a.44673.44673,0,0,0,.33081.19171c.46594,2.69855,1.43433,7.49255,2.656,9.05341C26.46093,95.46315,19.32952,105.60078,12.33727,114.57094ZM26.05462,81.51717l-.005,1.40381c-.20514.03363-.37268.0567-.53943.07977-.02246-.143-.04572-.28809-.06628-.42578a.85919.85919,0,0,0-.81934-.73242l-.6488-.0235-.32184-.47607.23187-.28851a.86116.86116,0,0,0,.15869-.76855c-.00934-.03351-.05353-.18268-.15479-.44775,1.72131-2.1095,4.626-5.86108,5.13623-7.74121,1.7475-.96936,14.47467-1.03741,26.10455-.53571Z" style="fill:#3fb299"/><path d="M26.94347,83.14022a4.33129,4.33129,0,1,1-3.40013-5.09294A4.349,4.349,0,0,1,26.94347,83.14022Z" style="fill:#fff"/><path d="M22.5911,85.67211a3.3748,3.3748,0,1,1,3.3385-2.68A3.36131,3.36131,0,0,1,22.5911,85.67211Zm.0698-4.978a1.62,1.62,0,0,0-1.59749,1.28437,1.60224,1.60224,0,0,0,1.23805,1.901,1.62088,1.62088,0,0,0,1.90766-1.25,1.60257,1.60257,0,0,0-1.238-1.902A1.65155,1.65155,0,0,0,22.6609,80.69408Z" style="fill:#3fb299"/><path d="M21.70593,83.83318a.879.879,0,0,1-.65451-.29156,2.02573,2.02573,0,1,1,3.04841-2.668.87921.87921,0,1,1-1.342,1.13629.259.259,0,0,0-.14728-.08587.26986.26986,0,0,0-.314.21168.26339.26339,0,0,0,.06291.22965.87968.87968,0,0,1-.65352,1.46779Z" style="opacity:0.5;fill:url(#a9a6bec3-9c68-4ead-b1cb-750b874a4889)"/><path d="M174.925,107.92411a2.06,2.06,0,0,0-.88818-.86993,22.31381,22.31381,0,0,0-1.18408-6.90546c-.3764-1.1366-.70215-2.00525-.97876-2.67279.00732-.00714.01752-.01343.02466-.02057.56641-.56641,1.03223-1.69824.03516-3.874a16.072,16.072,0,0,0-3.23242-4.42236c-2.264-2.262-5.09491-3.989-7.00775-3.778a22.05113,22.05113,0,0,0-9.6983-4.119c-.43359-2.55029-2.49219-10.249-12.08691-18.81348-11.73437-10.47412-26.33887-9.66357-31.1377-9.39648a38.58523,38.58523,0,0,0-22.47266,8.89209c-8.35645,6.86328-11.21,14.70947-13.09863,19.90186l-.20215.55371a47.69212,47.69212,0,0,0-3.52008,4.72241A22.20269,22.20269,0,0,0,67.78739,89.998a18.03914,18.03914,0,0,0-1.77057,4.68494,50.74276,50.74276,0,0,0-1.03906,6.97266c-.47656,1.02148-2.38672,5.51074-1.5127,9.94141a11.84519,11.84519,0,0,0,7.22266,8.96.97888.97888,0,0,0,.32227.05371h4.05341c.17065.18732.32806.38245.50909.56348a16.21582,16.21582,0,0,0,22.90625,0c.1806-.1806.34021-.376.51117-.56348h35.554a16.125,16.125,0,0,0,24.18866,0H163.341a11.45258,11.45258,0,0,0,4.2832-.72852c.09277-.05273.19727-.10645.31055-.166,1.11853-.57953,3.14264-1.63287,4.34357-5.5708a2.03214,2.03214,0,0,0,1.83514-1.4585l.9668-3.17773A2.06961,2.06961,0,0,0,174.925,107.92411Z" style="fill:#fbe4b4"/><path d="M169.19026,94.53446a.99894.99894,0,0,1-.8584-.48535c-2.70215-4.50391-5.8418-5.21191-5.97363-5.23975a.99982.99982,0,0,1,.38867-1.96143c.166.03223,4.10742.85107,7.2998,6.17188a1,1,0,0,1-.85645,1.51465Z" style="fill:url(#8b6c9a36-4b0b-4fd4-bea1-b39785bbd52f)"/><path d="M88.24339,80.971h13.67383V63.41678a25.52535,25.52535,0,0,0-9.30762,7.99756C89.09593,76.26688,88.385,79.68924,88.24339,80.971Z" style="fill:#fff"/><path d="M108.0012,80.971h35.93066a24.71893,24.71893,0,0,0-5.81543-10.28711A33.34554,33.34554,0,0,0,121.511,61.65946a31.20943,31.20943,0,0,0-13.50977-.36426Z" style="fill:#fff"/><circle cx="146.63841" cy="109.87332" r="8.02051" style="fill:#fff"/><path d="M87.02561,99.99149a9.88184,9.88184,0,1,0,9.88281,9.88184A9.89257,9.89257,0,0,0,87.02561,99.99149Z" style="fill:#fff"/><path d="M146.63792,99.99149a9.88184,9.88184,0,1,0,9.88281,9.88184A9.89236,9.89236,0,0,0,146.63792,99.99149Zm0,17.90234a8.02051,8.02051,0,1,1,8.02148-8.02051A8.029,8.029,0,0,1,146.63792,117.89383Z" style="fill:#f4b01c"/><path d="M87.02561,99.99149a9.88184,9.88184,0,1,0,9.88281,9.88184A9.89257,9.89257,0,0,0,87.02561,99.99149Zm0,17.90234a8.02051,8.02051,0,1,1,8.02148-8.02051A8.02917,8.02917,0,0,1,87.02561,117.89383Z" style="fill:#f4b01c"/><path d="M174.925,107.92411a2.06,2.06,0,0,0-.88818-.86993,22.31381,22.31381,0,0,0-1.18408-6.90546c-.3764-1.1366-.70215-2.00525-.97876-2.67279.00732-.00714.01752-.01343.02466-.02057.56641-.56641,1.03223-1.69824.03516-3.874a16.072,16.072,0,0,0-3.23242-4.42236c-2.264-2.262-5.09491-3.989-7.00775-3.778a22.05113,22.05113,0,0,0-9.6983-4.119c-.43359-2.55029-2.49219-10.249-12.08691-18.81348-11.73437-10.47412-26.33887-9.66357-31.1377-9.39648a38.58523,38.58523,0,0,0-22.47266,8.89209c-8.35645,6.86328-11.21,14.70947-13.09863,19.90186l-.20215.55371a47.69212,47.69212,0,0,0-3.52008,4.72241A22.20269,22.20269,0,0,0,67.78739,89.998a18.03914,18.03914,0,0,0-1.77057,4.68494,50.74276,50.74276,0,0,0-1.03906,6.97266c-.47656,1.02148-2.38672,5.51074-1.5127,9.94141a11.84519,11.84519,0,0,0,7.22266,8.96.97888.97888,0,0,0,.32227.05371h4.05341c.17065.18732.32806.38245.50909.56348a16.21582,16.21582,0,0,0,22.90625,0c.1806-.1806.34021-.376.51117-.56348h35.554a16.125,16.125,0,0,0,24.18866,0H163.341a11.45258,11.45258,0,0,0,4.2832-.72852c.09277-.05273.19727-.10645.31055-.166,1.11853-.57953,3.14264-1.63287,4.34357-5.5708a2.03214,2.03214,0,0,0,1.83514-1.4585l.9668-3.17773A2.06961,2.06961,0,0,0,174.925,107.92411ZM161.719,87.28153a.45724.45724,0,0,1,.32129-.08789c.82129,0,2.92383.86279,5.34473,3.28174a14.19583,14.19583,0,0,1,2.85645,3.88135c.55371,1.209.41016,1.71289.34082,1.78223-.06677.06873-.56628.211-1.7525-.326l-.0307-.01288a14.20289,14.20289,0,0,1-3.88281-2.85449c-2.23376-2.23224-3.132-4.18121-3.25934-5.116C161.6201,87.55954,161.63865,87.36185,161.719,87.28153Zm-89.78223-.0957c-.33691.69092-.97852,1.728-1.373,2.3667-.36292.587-.80768,1.23309-1.25018,1.85742a34.04245,34.04245,0,0,1,2.51965-4.1969C71.86778,87.20413,71.90293,87.19388,71.93675,87.18582Zm26.32544,31.4248a14.5448,14.5448,0,0,1-1.09985,1.24707c-.2677.2677-.55023.51086-.83325.75293a14.33948,14.33948,0,0,1-18.60693,0c-.283-.24207-.56555-.48523-.83325-.75293A14.33583,14.33583,0,1,1,101.36155,109.721,14.21976,14.21976,0,0,1,98.26219,118.61063Zm59.71649,0a14.43292,14.43292,0,0,1-1.87323,2,14.25259,14.25259,0,0,1-18.93457,0,14.43162,14.43162,0,0,1-1.873-2,14.33662,14.33662,0,1,1,22.68085,0Zm9.03522-.66992c-.13965.07324-.26758.13965-.38184.20508a10.04293,10.04293,0,0,1-3.2998.46484h-3.07617a16.19763,16.19763,0,1,0-27.23566,0H100.56584a16.19772,16.19772,0,1,0-27.08032,0H71.19261a9.90917,9.90917,0,0,1-5.76465-7.40039c-.83984-4.25,1.41406-8.82031,1.43652-8.86621a1.01355,1.01355,0,0,0,.10645-.457,39.7731,39.7731,0,0,1,.86389-6.06805,3.66632,3.66632,0,0,0,.74841-.387.93278.93278,0,0,0,.21-.19629c.08594-.10937,2.123-2.71289,3.35449-4.70459,1.47754-2.39014,2.05664-3.44873,1.8252-4.30615a1.21742,1.21742,0,0,0-.60352-.76465,1.50741,1.50741,0,0,0-.20081-.079c.83606-1.09106,1.43933-1.78589,1.45764-1.80676a.99652.99652,0,0,0,.18652-.31543l.2666-.72949C76.8928,77.54227,79.634,70.00516,87.56761,63.49a36.58931,36.58931,0,0,1,21.31445-8.44092c4.59375-.25488,18.57813-1.03174,29.69434,8.8916,10.84473,9.68018,11.52832,18.23535,11.53418,18.31738a1.004,1.004,0,0,0,1.00293.94092h.00586c.06555,0,3.7265.048,8.84912,3.43341-.756,1.87463,1.10693,5.10687,3.63135,7.62958a16.05722,16.05722,0,0,0,4.4248,3.23047,5.93036,5.93036,0,0,0,1.92316.56042c.26227.617.59863,1.49365,1.00653,2.72473a20.26022,20.26022,0,0,1,1.08435,6.33655,2.056,2.056,0,0,0-.75238.75629,2.08152,2.08152,0,0,0-.18939.42865l-.9668,3.17773a2.06208,2.06208,0,0,0,.09,1.42737c.02271.05231.03815.10675.06531.15759a2.07671,2.07671,0,0,0,.157.236C169.49479,116.64926,168.00968,117.42392,167.01389,117.94071Zm6.28516-8.97266-.9668,3.17773a.18391.18391,0,0,1-.08655.10559c-.00739.00507-.01312.02063-.0199.02429a.22006.22006,0,0,1-.29785-.08984.219.219,0,0,1-.0166-.168l.9668-3.17773a.21459.21459,0,0,1,.10645-.12988.21763.21763,0,0,1,.10352-.02637.22487.22487,0,0,1,.06445.00977.17667.17667,0,0,1,.09845.08069c.00714.00964.02673.017.03143.02576A.219.219,0,0,1,173.29905,108.96805Z" style="fill:#f4b01c"/><path d="M108.02377,70.01053s2.8294-1.07436,3.08009.89531,0,4.36911.32232,5.30023.9311,4.54613,1.2176,4.762h-4.62Z" style="fill:#f4b01c"/><path d="M129.78906,75.299l-1.00275,5.62492h1.64737l.93112-5.08941S131.0783,74.11355,129.78906,75.299Z" style="fill:#f4b01c"/><path d="M131.92779,76.94977l-.59061,3.9741H143.674s-6.05919-6.43488-11.585-4.08155C131.9039,76.92112,131.92779,76.94977,131.92779,76.94977Z" style="fill:#f4b01c"/><path d="M102.50022,82.136H87.6262a.58277.58277,0,0,1-.582-.55469c-.00781-.1709-.14648-4.2666,4.62207-10.85059A25.15013,25.15013,0,0,1,102.301,61.97733a.58308.58308,0,0,1,.78223.54785V81.5535A.58255.58255,0,0,1,102.50022,82.136ZM88.24339,80.971h13.67383V63.41678a25.52535,25.52535,0,0,0-9.30762,7.99756C89.09593,76.26688,88.385,79.68924,88.24339,80.971Z" style="fill:#e2a025"/><path d="M144.68675,82.136H107.41819a.58255.58255,0,0,1-.583-.58252V60.92557a.70057.70057,0,0,1,.44531-.66113,31.92606,31.92606,0,0,1,14.50391.26221,34.44319,34.44319,0,0,1,17.15234,9.33008A25.73769,25.73769,0,0,1,145.25608,81.43a.58169.58169,0,0,1-.56934.70605ZM108.0012,80.971h35.93066a24.71893,24.71893,0,0,0-5.81543-10.28711A33.34554,33.34554,0,0,0,121.511,61.65946a31.20943,31.20943,0,0,0-13.50977-.36426Z" style="fill:#e2a025"/><path d="M126.60374,113.12723H110.35667a.58286.58286,0,0,1-.55957-.74707,19.60856,19.60856,0,0,0-5.27441-20.30957.58139.58139,0,0,1-.21289-.4502V61.92166a.583.583,0,0,1,1.166,0v29.437a20.82847,20.82847,0,0,1,5.64746,20.60254h15.48047a.583.583,0,0,1,0,1.166Z" style="fill:#e2a025"/><path d="M165.28538,110.45633a.58265.58265,0,0,1-.583-.583,18.06506,18.06506,0,0,0-30.54-13.06445.58227.58227,0,1,1-.80469-.8418,19.22955,19.22955,0,0,1,32.51074,13.90625A.58265.58265,0,0,1,165.28538,110.45633Z" style="fill:url(#0c7af420-5759-47f3-b833-66530644e700)"/><path d="M105.6721,110.303a.58265.58265,0,0,1-.583-.583A18.063,18.063,0,0,0,74.25315,96.94754a.58281.58281,0,0,1-.82422-.82422A19.22949,19.22949,0,0,1,106.25511,109.72.58265.58265,0,0,1,105.6721,110.303Z" style="fill:url(#0c7af420-5759-47f3-b833-66530644e700)"/><path d="M146.63792,114.93582a5.05417,5.05417,0,0,1-4.66406-3.09277.58294.58294,0,0,1,1.07422-.45312,3.89775,3.89775,0,1,0,5.96289-4.60937.58286.58286,0,1,1,.71094-.92383,5.06276,5.06276,0,0,1-3.084,9.0791Z" style="fill:url(#8b6c9a36-4b0b-4fd4-bea1-b39785bbd52f)"/><path d="M112.94261,73.31864a.583.583,0,0,1-.2002-1.13037l15.03516-5.501A.58282.58282,0,0,1,128.178,67.782L113.1428,73.283A.58941.58941,0,0,1,112.94261,73.31864Z" style="fill:url(#8b6c9a36-4b0b-4fd4-bea1-b39785bbd52f)"/><path d="M115.75413,74.9075a.583.583,0,0,1-.2002-1.13037l10.39063-3.80127a.58282.58282,0,0,1,.40039,1.09473l-10.39062,3.80127A.58941.58941,0,0,1,115.75413,74.9075Z" style="fill:url(#8b6c9a36-4b0b-4fd4-bea1-b39785bbd52f)"/><path d="M87.02561,114.93582a5.05451,5.05451,0,0,1-4.665-3.09277.58294.58294,0,1,1,1.07422-.45312,3.89775,3.89775,0,1,0,5.96289-4.60937.58286.58286,0,1,1,.71094-.92383,5.06276,5.06276,0,0,1-3.083,9.0791Z" style="fill:url(#8b6c9a36-4b0b-4fd4-bea1-b39785bbd52f)"/><path d="M167.23306,53.20857a7.96706,7.96706,0,0,1,5.81619,7.64323,8.05254,8.05254,0,1,1-10.98412-7.37971V20.1125a1.13226,1.13226,0,0,1,1.13226-1.13226h2.90342a1.13226,1.13226,0,0,1,1.13226,1.13226Z" style="fill:#f3bdd0"/><path d="M168.72633,52.55983V14.17018a4.136,4.136,0,0,0-8.27148.0166V52.95192a8.8735,8.8735,0,1,0,8.27148-.39209Zm-3.7666,15.416a7.37608,7.37608,0,0,1-3.4082-13.91748.7501.7501,0,0,0,.40332-.665V52.414a.98315.98315,0,0,0,.32813.06622h3a1,1,0,0,0,0-2h-3a.98315.98315,0,0,0-.32812.06622V48.414a.98315.98315,0,0,0,.32813.06622h3a1,1,0,0,0,0-2h-3a.98315.98315,0,0,0-.32812.06622V43.414a.98315.98315,0,0,0,.32813.06622h3a1,1,0,0,0,0-2h-3a.98315.98315,0,0,0-.32812.06622V39.414a.98315.98315,0,0,0,.32813.06622h3a1,1,0,0,0,0-2h-3a.98315.98315,0,0,0-.32812.06622V34.414a.98315.98315,0,0,0,.32813.06622h3a1,1,0,0,0,0-2h-3a.98315.98315,0,0,0-.32812.06622V30.414a.98315.98315,0,0,0,.32813.06622h3a1,1,0,0,0,0-2h-3a.98315.98315,0,0,0-.32812.06622V25.414a.98315.98315,0,0,0,.32813.06622h3a1,1,0,0,0,0-2h-3a.98315.98315,0,0,0-.32812.06622V20.414a.98315.98315,0,0,0,.32813.06622h3a1,1,0,0,0,0-2h-3a.98315.98315,0,0,0-.32812.06622V14.17018a2.63621,2.63621,0,0,1,5.27148.0166V53.06764a.74826.74826,0,0,0,.60547.73584,7.37751,7.37751,0,0,1-2.87207,14.17236Z" style="fill:#ee404c"/><path d="M164.87867,65.67555a5.28059,5.28059,0,0,1-2.39258-9.98291.50008.50008,0,1,1,.45508.89063,4.27681,4.27681,0,1,0,6.209,3.814.5.5,0,1,1,1,0A5.28106,5.28106,0,0,1,164.87867,65.67555Z" style="fill:#fff"/></svg>